<svg xmlns="http://www.w3.org/2000/svg" xmlns:xlink="http://www.w3.org/1999/xlink" width="1080" zoomAndPan="magnify" viewBox="0 0 810 809.999993" height="1080" preserveAspectRatio="xMidYMid meet" version="1.0"><defs><clipPath id="id1"><path d="M 27.617188 242 L 132 242 L 132 583 L 27.617188 583 Z M 27.617188 242 " clip-rule="nonzero"/></clipPath></defs><path fill="#a6a6a6" d="M 173.875 582.8125 L 392.710938 744 L 392.710938 81 L 173.875 242.1875 Z M 173.875 582.8125 " fill-opacity="1" fill-rule="nonzero"/><g clip-path="url(#id1)"><path fill="#a6a6a6" d="M 27.984375 242.1875 L 131.324219 242.1875 L 131.324219 582.8125 L 27.984375 582.8125 Z M 27.984375 242.1875 " fill-opacity="1" fill-rule="nonzero"/></g><path fill="#a6a6a6" d="M 440.871094 319.613281 C 433.753906 326.742188 433.753906 338.292969 440.878906 345.421875 C 458.785156 363.339844 468.652344 387.160156 468.652344 412.5 C 468.652344 437.839844 458.785156 461.664062 440.878906 479.589844 C 433.753906 486.714844 433.753906 498.269531 440.878906 505.394531 C 444.441406 508.957031 449.109375 510.738281 453.769531 510.738281 C 458.433594 510.738281 463.101562 508.957031 466.664062 505.394531 C 491.464844 480.574219 505.125 447.585938 505.125 412.5 C 505.125 377.410156 491.464844 344.425781 466.664062 319.613281 C 459.539062 312.492188 447.996094 312.484375 440.871094 319.613281 Z M 440.871094 319.613281 " fill-opacity="1" fill-rule="nonzero"/><path fill="#a6a6a6" d="M 564.40625 221.828125 C 557.285156 214.699219 545.75 214.695312 538.617188 221.816406 C 531.496094 228.941406 531.488281 240.492188 538.605469 247.625 C 582.597656 291.699219 606.835938 350.25 606.835938 412.5 C 606.835938 474.75 582.605469 533.300781 538.605469 577.367188 C 531.488281 584.496094 531.496094 596.046875 538.617188 603.171875 C 542.179688 606.734375 546.84375 608.511719 551.503906 608.511719 C 556.179688 608.511719 560.84375 606.730469 564.40625 603.15625 C 615.285156 552.203125 643.300781 484.492188 643.300781 412.5 C 643.308594 340.511719 615.285156 272.796875 564.40625 221.828125 Z M 564.40625 221.828125 " fill-opacity="1" fill-rule="nonzero"/><path fill="#a6a6a6" d="M 662.058594 124.078125 C 654.9375 116.953125 643.386719 116.953125 636.273438 124.078125 C 629.148438 131.199219 629.148438 142.757812 636.273438 149.886719 C 706.378906 220.03125 744.988281 313.292969 744.988281 412.5 C 744.988281 511.6875 706.375 604.957031 636.269531 675.121094 C 629.144531 682.25 629.144531 693.800781 636.269531 700.921875 C 639.832031 704.488281 644.5 706.269531 649.160156 706.269531 C 653.824219 706.269531 658.5 704.488281 662.054688 700.921875 C 739.054688 623.863281 781.460938 521.433594 781.460938 412.5 C 781.460938 303.542969 739.054688 201.113281 662.058594 124.078125 Z M 662.058594 124.078125 " fill-opacity="1" fill-rule="nonzero"/></svg>